# xmcd
#
# Track frame offsets:
#	150
#	11982
#	23667
#	40019
#	52059
#	64353
#	77749
#	94224
#	106439
#	118826
#	139474
#	153859
#	172204
#
# Disc length: 2495 seconds
#
# Revision: 0
# Processed by: cddbd v1.5.2PL0 Copyright (c) Steve Scherf et al.
# Submitted via: dBpowerAMP V4.0
#
DISCID=b809bd0d
DTITLE=Wayne Warner - Turbo Twang'n
DYEAR=1900
DGENRE=Country
TTITLE0=Doing Something Right
TTITLE1=More Of That
TTITLE2=A Flight Called You
TTITLE3=Lifes All Right With Me
TTITLE4=I Wanna Do That Love Thing
TTITLE5=10,000 Tears Ago
TTITLE6=I Didn't Stand A Chance In Hell
TTITLE7=Loves Knock, Knock, Knocking
TTITLE8=Something 'Bout You
TTITLE9=Surrender
TTITLE10=Turbo Twang
TTITLE11=Things You Make My Heart Say (Yippi Yippi Kiyiya) Dance Mix
TTITLE12=God Bless The Children
EXTD=
EXTT0=
EXTT1=
EXTT2=
EXTT3=
EXTT4=
EXTT5=
EXTT6=
EXTT7=
EXTT8=
EXTT9=
EXTT10=
EXTT11=
EXTT12=
PLAYORDER=
